<svg width="13" height="10" viewBox="0 0 13 10" fill="none" xmlns="http://www.w3.org/2000/svg">
<path fill-rule="evenodd" clip-rule="evenodd" d="M11.5009 0.276984C12.0517 0.428116 12.4854 0.873426 12.6326 1.43893C12.9001 2.46384 12.9001 4.60232 12.9001 4.60232C12.9001 4.60232 12.9001 6.74073 12.6326 7.76571C12.4854 8.33121 12.0517 8.77652 11.5009 8.92773C10.5028 9.20232 6.5001 9.20232 6.5001 9.20232C6.5001 9.20232 2.49741 9.20232 1.49923 8.92773C0.948461 8.77652 0.514716 8.33121 0.367516 7.76571C0.100098 6.74073 0.100098 4.60232 0.100098 4.60232C0.100098 4.60232 0.100098 2.46384 0.367516 1.43893C0.514716 0.873426 0.948461 0.428116 1.49923 0.276984C2.49741 0.00231934 6.5001 0.00231934 6.5001 0.00231934C6.5001 0.00231934 10.5028 0.00231934 11.5009 0.276984ZM5.30011 2.80228V6.80228L8.50011 4.80235L5.30011 2.80228Z" fill="#ECD7E7"/>
</svg>
