<svg width="13" height="13" viewBox="0 0 13 13" fill="none" xmlns="http://www.w3.org/2000/svg">
<path fill-rule="evenodd" clip-rule="evenodd" d="M6.5007 0.00231934C4.76255 0.00231934 4.54441 0.00991942 3.86174 0.0409864C3.1804 0.0721867 2.71533 0.180055 2.30839 0.338323C1.88745 0.501791 1.53038 0.72046 1.17464 1.07633C0.818639 1.43207 0.59997 1.78914 0.435968 2.20994C0.2773 2.61701 0.169298 3.08222 0.138631 3.76329C0.108098 4.44597 0.100098 4.66423 0.100098 6.40239C0.100098 8.14054 0.107831 8.35801 0.138765 9.04068C0.170098 9.72202 0.277966 10.1871 0.436101 10.594C0.599703 11.015 0.818372 11.372 1.17424 11.7278C1.52985 12.0838 1.88692 12.303 2.30759 12.4664C2.71479 12.6247 3.18 12.7326 3.8612 12.7638C4.54388 12.7949 4.76188 12.8025 6.4999 12.8025C8.23818 12.8025 8.45565 12.7949 9.13833 12.7638C9.81967 12.7326 10.2853 12.6247 10.6925 12.4664C11.1133 12.303 11.4698 12.0838 11.8254 11.7278C12.1814 11.372 12.4001 11.015 12.5641 10.5942C12.7214 10.1871 12.8294 9.72189 12.8614 9.04081C12.8921 8.35814 12.9001 8.14054 12.9001 6.40239C12.9001 4.66423 12.8921 4.4461 12.8614 3.76342C12.8294 3.08208 12.7214 2.61701 12.5641 2.21008C12.4001 1.78914 12.1814 1.43207 11.8254 1.07633C11.4694 0.720327 11.1134 0.501658 10.6921 0.338323C10.2841 0.180055 9.81873 0.0721867 9.13739 0.0409864C8.45472 0.00991942 8.23738 0.00231934 6.4987 0.00231934H6.5007ZM5.92653 1.15565C6.09693 1.15538 6.28707 1.15565 6.50067 1.15565C8.20949 1.15565 8.41202 1.16178 9.08683 1.19245C9.71084 1.22098 10.0495 1.32525 10.2751 1.41285C10.5738 1.52885 10.7867 1.66752 11.0106 1.89152C11.2346 2.11552 11.3733 2.32886 11.4895 2.62753C11.5771 2.85286 11.6815 3.19153 11.7099 3.81554C11.7406 4.49021 11.7473 4.69288 11.7473 6.4009C11.7473 8.10892 11.7406 8.31159 11.7099 8.98626C11.6814 9.61027 11.5771 9.94894 11.4895 10.1743C11.3735 10.4729 11.2346 10.6856 11.0106 10.9095C10.7866 11.1335 10.5739 11.2722 10.2751 11.3882C10.0498 11.4762 9.71084 11.5802 9.08683 11.6087C8.41216 11.6394 8.20949 11.646 6.50067 11.646C4.79172 11.646 4.58918 11.6394 3.91451 11.6087C3.2905 11.5799 2.95183 11.4756 2.7261 11.388C2.42743 11.272 2.21409 11.1334 1.99009 10.9093C1.76609 10.6853 1.62742 10.4725 1.51115 10.1737C1.42355 9.94841 1.31915 9.60974 1.29075 8.98573C1.26008 8.31106 1.25395 8.10839 1.25395 6.3993C1.25395 4.69022 1.26008 4.48862 1.29075 3.81394C1.31928 3.18993 1.42355 2.85126 1.51115 2.62566C1.62715 2.32699 1.76609 2.11366 1.99009 1.88965C2.21409 1.66565 2.42743 1.52698 2.7261 1.41072C2.9517 1.32272 3.2905 1.21871 3.91451 1.19005C4.50492 1.16338 4.73372 1.15538 5.92653 1.15405V1.15565ZM9.91698 2.21833C9.49297 2.21833 9.14897 2.56193 9.14897 2.98607C9.14897 3.41007 9.49297 3.75408 9.91698 3.75408C10.341 3.75408 10.685 3.41007 10.685 2.98607C10.685 2.56206 10.341 2.21833 9.91698 2.21833ZM6.50071 3.11567C4.68562 3.11567 3.21401 4.58728 3.21401 6.40237C3.21401 8.21745 4.68562 9.6884 6.50071 9.6884C8.31579 9.6884 9.78688 8.21745 9.78688 6.40237C9.78688 4.58728 8.31579 3.11567 6.50071 3.11567ZM6.50068 4.26901C7.67883 4.26901 8.63404 5.22409 8.63404 6.40237C8.63404 7.58051 7.67883 8.53572 6.50068 8.53572C5.3224 8.53572 4.36733 7.58051 4.36733 6.40237C4.36733 5.22409 5.3224 4.26901 6.50068 4.26901Z" fill="#ECD7E7"/>
</svg>
