<svg width="13" height="11" viewBox="0 0 13 11" fill="none" xmlns="http://www.w3.org/2000/svg">
<path fill-rule="evenodd" clip-rule="evenodd" d="M6.1406 3.15605L6.16578 3.57127L5.7461 3.52043C4.21843 3.32553 2.88383 2.66455 1.75067 1.55446L1.19668 1.00364L1.05399 1.4104C0.751813 2.31712 0.944869 3.27468 1.5744 3.91871C1.91015 4.27462 1.83461 4.32546 1.25544 4.11361C1.05399 4.04582 0.877719 3.99497 0.860931 4.0204C0.802175 4.07971 1.00363 4.85085 1.16311 5.15591C1.38134 5.57962 1.82621 5.99484 2.31305 6.24059L2.72434 6.43549L2.23751 6.44397C1.76746 6.44397 1.75067 6.45244 1.80103 6.63039C1.96891 7.18121 2.63201 7.76591 3.37066 8.02013L3.89108 8.19809L3.43781 8.46926C2.76631 8.85906 1.9773 9.07939 1.18829 9.09634C0.810569 9.10481 0.5 9.1387 0.5 9.16413C0.5 9.24887 1.52404 9.72341 2.11999 9.90984C3.90786 10.4607 6.03148 10.2234 7.6263 9.28276C8.75945 8.61332 9.89261 7.28289 10.4214 5.99484C10.7068 5.30845 10.9922 4.05429 10.9922 3.45264C10.9922 3.06283 11.0174 3.01199 11.4874 2.54592C11.7644 2.27475 12.0246 1.97816 12.075 1.89342C12.1589 1.73241 12.1505 1.73241 11.7224 1.87647C11.009 2.13069 10.9083 2.09679 11.2608 1.71546C11.521 1.44429 11.8316 0.9528 11.8316 0.808741C11.8316 0.783319 11.7057 0.825689 11.563 0.901955C11.4119 0.986696 11.0761 1.11381 10.8243 1.19007L10.3711 1.33413L9.95976 1.05449C9.73313 0.901955 9.41417 0.732475 9.24629 0.681631C8.81821 0.562995 8.1635 0.579943 7.77738 0.715527C6.72816 1.09686 6.06506 2.07984 6.1406 3.15605Z" fill="#ECD7E7"/>
</svg>
