<svg width="13" height="13" viewBox="0 0 13 13" fill="none" xmlns="http://www.w3.org/2000/svg">
<path fill-rule="evenodd" clip-rule="evenodd" d="M12.9001 6.39345C12.9001 6.82627 12.856 7.25848 12.7695 7.6798C12.6851 8.0911 12.5601 8.49491 12.3963 8.88092C12.2363 9.26011 12.0379 9.62552 11.806 9.96629C11.5776 10.3049 11.3144 10.6226 11.0253 10.9122C10.7356 11.2005 10.4169 11.4629 10.0784 11.6923C9.73653 11.9226 9.37059 12.1208 8.99118 12.2815C8.60461 12.4444 8.19987 12.5692 7.78892 12.6535C7.36705 12.7402 6.93325 12.7845 6.49981 12.7845C6.06604 12.7845 5.63227 12.7402 5.211 12.6535C4.79942 12.5692 4.39471 12.4444 4.00844 12.2815C3.62905 12.1208 3.26277 11.9226 2.92088 11.6923C2.58243 11.463 2.26366 11.2005 1.97458 10.9122C1.6852 10.6226 1.42205 10.3049 1.19329 9.96629C0.962653 9.62552 0.763879 9.26009 0.603257 8.88092C0.439478 8.49491 0.314177 8.09108 0.229482 7.6798C0.14386 7.25848 0.100098 6.82627 0.100098 6.39345C0.100098 5.9603 0.143835 5.52716 0.229507 5.10677C0.314202 4.69547 0.439503 4.29104 0.603282 3.90564C0.763904 3.52618 0.962678 3.16045 1.19332 2.81966C1.42207 2.48077 1.68523 2.16369 1.97461 1.87377C2.26369 1.58541 2.58245 1.32361 2.92091 1.09456C3.26279 0.863305 3.62908 0.665168 4.00846 0.504127C4.39474 0.340885 4.79942 0.215765 5.21102 0.132143C5.63229 0.046019 6.06606 0.00231934 6.49984 0.00231934C6.93328 0.00231934 7.36705 0.046019 7.78895 0.132143C8.1999 0.21579 8.60461 0.34091 8.99121 0.504127C9.37059 0.665143 9.73655 0.863305 10.0784 1.09456C10.4169 1.32361 10.7357 1.58541 11.0254 1.87377C11.3144 2.16369 11.5776 2.48077 11.806 2.81966C12.0379 3.16045 12.2363 3.52621 12.3963 3.90564C12.5601 4.29104 12.6851 4.69547 12.7695 5.10677C12.856 5.52716 12.9001 5.9603 12.9001 6.39345ZM4.16779 1.45685C2.64363 2.17556 1.50607 3.57798 1.15136 5.26813C1.29545 5.26938 3.57307 5.29809 6.19726 4.60185C5.25128 2.92356 4.24061 1.55393 4.16779 1.45685ZM6.65009 5.44228C3.83589 6.28358 1.13543 6.22304 1.03856 6.21932C1.03698 6.27798 1.03417 6.33476 1.03417 6.39344C1.03417 7.79553 1.56389 9.07375 2.43456 10.0402C2.43268 10.0374 3.9284 7.38768 6.87792 6.43526C6.94916 6.41155 7.02168 6.39031 7.09355 6.36973C6.95638 6.05955 6.80665 5.74873 6.65009 5.44228ZM10.1094 2.29726C9.1471 1.44998 7.88362 0.936041 6.49979 0.936041C6.0557 0.936041 5.62474 0.989722 5.21191 1.08895C5.29377 1.19881 6.32041 2.55878 7.25513 4.27262C9.31744 3.50059 10.0959 2.31722 10.1094 2.29726ZM7.46612 7.27409C7.45394 7.27812 7.44177 7.2816 7.42987 7.28595C4.20507 8.40854 3.15196 10.6709 3.14057 10.6956C4.06845 11.4161 5.23226 11.8508 6.49983 11.8508C7.25672 11.8508 7.97769 11.697 8.63366 11.4183C8.55272 10.9415 8.23521 9.27007 7.46612 7.27409ZM9.55401 10.9196C10.7812 10.0927 11.6528 8.77952 11.896 7.25846C11.7835 7.22226 10.2543 6.73887 8.49018 7.0213C9.20709 8.98858 9.49838 10.5907 9.55401 10.9196ZM7.67582 5.08588C7.80268 5.34615 7.92552 5.61105 8.03895 5.87727C8.07928 5.97278 8.11866 6.06641 8.15709 6.16001C10.0347 5.92408 11.8845 6.32102 11.9635 6.33723C11.951 5.04343 11.4876 3.85601 10.7207 2.92639C10.7104 2.94102 9.83375 4.20583 7.67582 5.08588Z" fill="#ECD7E7"/>
</svg>
