<svg width="28" height="31" viewBox="0 0 28 31" fill="none" xmlns="http://www.w3.org/2000/svg">
<g clip-path="url(#clip0)">
<path d="M25.5714 12.5938H16.8929V3.875C16.8929 2.80514 16.0292 1.9375 14.9643 1.9375H13.0357C11.9708 1.9375 11.1071 2.80514 11.1071 3.875V12.5938H2.42857C1.36364 12.5938 0.5 13.4614 0.5 14.5312V16.4688C0.5 17.5386 1.36364 18.4062 2.42857 18.4062H11.1071V27.125C11.1071 28.1949 11.9708 29.0625 13.0357 29.0625H14.9643C16.0292 29.0625 16.8929 28.1949 16.8929 27.125V18.4062H25.5714C26.6364 18.4062 27.5 17.5386 27.5 16.4688V14.5312C27.5 13.4614 26.6364 12.5938 25.5714 12.5938Z" fill="#20C8A4"/>
</g>
<defs>
<clipPath id="clip0">
<rect width="27" height="31" fill="white" transform="translate(0.5)"/>
</clipPath>
</defs>
</svg>
